<?xml version="1.0" encoding="UTF-8"?>
<!DOCTYPE svg PUBLIC "-//W3C//DTD SVG 1.1//EN" "http://www.w3.org/Graphics/SVG/1.1/DTD/svg11.dtd">
<svg xmlns="http://www.w3.org/2000/svg" version="1.1" width="128px" height="1024px" style="shape-rendering:geometricPrecision; text-rendering:geometricPrecision; image-rendering:optimizeQuality; fill-rule:evenodd; clip-rule:evenodd" xmlns:xlink="http://www.w3.org/1999/xlink">
<g><path style="opacity:0.942" fill="#000000" d="M 6.5,722.5 C 13.175,722.334 19.8417,722.5 26.5,723C 27.4692,727.737 27.8025,732.57 27.5,737.5C 53.5,737.5 79.5,737.5 105.5,737.5C 105.5,744.5 105.5,751.5 105.5,758.5C 79.5,758.5 53.5,758.5 27.5,758.5C 27.5,763.167 27.5,767.833 27.5,772.5C 20.5,772.5 13.5,772.5 6.5,772.5C 6.5,755.833 6.5,739.167 6.5,722.5 Z"/></g>
<g><path style="opacity:0.95" fill="#000000" d="M 24.5,775.5 C 29.7616,775.195 34.9283,775.529 40,776.5C 40.6667,782.833 40.6667,789.167 40,795.5C 35.92,796.3 31.7533,796.8 27.5,797C 24.6012,800.156 24.9345,802.822 28.5,805C 36.9371,805.937 45.2704,805.604 53.5,804C 55.494,799.407 56.994,794.574 58,789.5C 67.6278,775.301 80.1278,772.134 95.5,780C 100.252,783.414 103.419,787.914 105,793.5C 105.5,804.161 105.667,814.828 105.5,825.5C 98.8333,825.5 92.1667,825.5 85.5,825.5C 85.6664,816.827 85.4998,808.16 85,799.5C 82.8225,795.935 80.1558,795.601 77,798.5C 76.6816,810.462 71.1816,818.962 60.5,824C 48.224,825.584 35.8907,825.917 23.5,825C 8.54162,820.261 2.37495,810.094 5,794.5C 8.12106,784.544 14.6211,778.21 24.5,775.5 Z"/></g>
<g><path style="opacity:0.93" fill="#000000" d="M 6.5,832.5 C 39.8333,832.5 73.1667,832.5 106.5,832.5C 106.812,839.422 106.479,846.256 105.5,853C 72.5017,853.5 39.5017,853.667 6.5,853.5C 6.5,846.5 6.5,839.5 6.5,832.5 Z"/></g>
<g><path style="opacity:0.97" fill="#000000" d="M 6.5,854.5 C 13.5,854.5 20.5,854.5 27.5,854.5C 27.5,859.5 27.5,864.5 27.5,869.5C 53.5,869.5 79.5,869.5 105.5,869.5C 105.5,876.167 105.5,882.833 105.5,889.5C 79.5,889.5 53.5,889.5 27.5,889.5C 27.5,894.5 27.5,899.5 27.5,904.5C 20.5,904.5 13.5,904.5 6.5,904.5C 6.5,887.833 6.5,871.167 6.5,854.5 Z"/></g>
<g><path style="opacity:0.956" fill="#000000" d="M 97.5,905.5 C 100.167,905.5 102.833,905.5 105.5,905.5C 105.83,912.2 105.497,918.866 104.5,925.5C 96.5781,927.084 88.5781,928.251 80.5,929C 77.1788,930.812 75.8454,933.645 76.5,937.5C 86.1667,937.5 95.8333,937.5 105.5,937.5C 105.5,944.5 105.5,951.5 105.5,958.5C 72.5,958.5 39.5,958.5 6.5,958.5C -0.29723,917.464 16.7028,900.964 57.5,909C 60.9875,910.245 64.3208,911.745 67.5,913.5C 77.0809,908.939 87.0809,906.273 97.5,905.5 Z M 31.5,928.5 C 38.175,928.334 44.8417,928.5 51.5,929C 55.0511,930.677 56.3845,933.51 55.5,937.5C 46.1667,937.5 36.8333,937.5 27.5,937.5C 26.6569,933.321 27.9903,930.321 31.5,928.5 Z"/></g>
<g><path style="opacity:0.962" fill="#000000" d="M 27.5,964.5 C 53.5,964.5 79.5,964.5 105.5,964.5C 105.5,971.5 105.5,978.5 105.5,985.5C 99.1667,985.5 92.8333,985.5 86.5,985.5C 86.5,988.5 86.5,991.5 86.5,994.5C 92.8333,994.5 99.1667,994.5 105.5,994.5C 105.5,1001.17 105.5,1007.83 105.5,1014.5C 77.8313,1014.67 50.1647,1014.5 22.5,1014C 6.705,1007.57 1.205,996.073 6,979.5C 10.7713,970.88 17.9379,965.88 27.5,964.5 Z M 27.5,985.5 C 40.1667,985.5 52.8333,985.5 65.5,985.5C 65.5,988.5 65.5,991.5 65.5,994.5C 53.1622,994.667 40.8288,994.5 28.5,994C 23.6533,991.666 23.32,988.832 27.5,985.5 Z"/></g>
</svg>
