<?xml version="1.0" encoding="UTF-8"?>
<!DOCTYPE svg PUBLIC "-//W3C//DTD SVG 1.1//EN" "http://www.w3.org/Graphics/SVG/1.1/DTD/svg11.dtd">
<svg xmlns="http://www.w3.org/2000/svg" version="1.1" width="128px" height="1024px" style="shape-rendering:geometricPrecision; text-rendering:geometricPrecision; image-rendering:optimizeQuality; fill-rule:evenodd; clip-rule:evenodd" xmlns:xlink="http://www.w3.org/1999/xlink">
<g><path style="opacity:0.879" fill="#000000" d="M 99.5,767.5 C 104.5,767.5 109.5,767.5 114.5,767.5C 115.328,782.151 115.661,796.817 115.5,811.5C 82.5008,811.897 49.5008,812.231 16.5,812.5C 16.6847,797.816 16.3513,783.149 15.5,768.5C 20.8333,768.5 26.1667,768.5 31.5,768.5C 32.1528,777.077 32.1528,785.577 31.5,794C 39.4931,794.5 47.4931,794.666 55.5,794.5C 55.5,787.5 55.5,780.5 55.5,773.5C 60.5,773.5 65.5,773.5 70.5,773.5C 71.2206,780.467 71.7206,787.467 72,794.5C 81.3333,793.167 90.6667,793.167 100,794.5C 100.552,785.487 100.385,776.487 99.5,767.5 Z"/></g>
<g><path style="opacity:0.004" fill="#000000" d="M 16.5,821.5 C 15.8333,820.167 15.8333,820.167 16.5,821.5 Z"/></g>
<g><path style="opacity:0.863" fill="#000000" d="M 115.5,861.5 C 96.4506,864.453 77.4506,867.619 58.5,871C 77.4869,870.718 96.4869,870.551 115.5,870.5C 115.5,875.833 115.5,881.167 115.5,886.5C 82.8334,887.077 50.1667,887.244 17.5,887C 16.5183,879.253 16.185,871.42 16.5,863.5C 37.5266,860.551 58.5266,857.385 79.5,854C 58.4381,851.586 37.4381,848.753 16.5,845.5C 16.5,837.5 16.5,829.5 16.5,821.5C 49.5017,821.3 82.5017,820.967 115.5,820.5C 115.5,826.167 115.5,831.833 115.5,837.5C 97.1327,837.114 78.7993,837.614 60.5,839C 78.909,840.987 97.2423,843.487 115.5,846.5C 115.5,851.5 115.5,856.5 115.5,861.5 Z"/></g>
<g><path style="opacity:0.004" fill="#000000" d="M 115.5,861.5 C 116.833,862.167 116.833,862.167 115.5,861.5 Z"/></g>
<g><path style="opacity:0.871" fill="#000000" d="M 71.5,894.5 C 81.8894,894.13 92.2227,894.63 102.5,896C 113.24,899.789 118.574,907.456 118.5,919C 118.514,931.68 112.514,939.68 100.5,943C 78.1745,944.126 55.8411,944.459 33.5,944C 21.4812,940.668 15.4812,932.668 15.5,920C 15.5479,906.958 21.8812,898.958 34.5,896C 47.0068,895.831 59.3401,895.331 71.5,894.5 Z M 69.5,912.5 C 78.8393,912.334 88.1726,912.5 97.5,913C 103.244,916.132 103.911,920.132 99.5,925C 77.8444,926.25 56.1778,926.583 34.5,926C 30.269,921.522 30.6023,917.522 35.5,914C 47.0074,913.831 58.3407,913.331 69.5,912.5 Z"/></g>
<g><path style="opacity:0.863" fill="#000000" d="M 116.5,969.5 C 101.833,969.5 87.1667,969.5 72.5,969.5C 72.3341,974.511 72.5007,979.511 73,984.5C 87.4215,983.51 101.921,983.176 116.5,983.5C 116.425,989.529 116.759,995.529 117.5,1001.5C 84.5005,1001.87 51.5005,1002.21 18.5,1002.5C 17.8354,996.523 17.502,990.523 17.5,984.5C 30.8375,984.667 44.1708,984.5 57.5,984C 56.1667,979.667 56.1667,975.333 57.5,971C 44.1708,970.5 30.8375,970.333 17.5,970.5C 17.5,964.5 17.5,958.5 17.5,952.5C 50.5017,952.3 83.5017,951.967 116.5,951.5C 116.5,957.5 116.5,963.5 116.5,969.5 Z"/></g>
<g><path style="opacity:0.004" fill="#000000" d="M 116.5,969.5 C 117.833,970.167 117.833,970.167 116.5,969.5 Z"/></g>
</svg>
