<?xml version="1.0" encoding="UTF-8"?>
<!DOCTYPE svg PUBLIC "-//W3C//DTD SVG 1.1//EN" "http://www.w3.org/Graphics/SVG/1.1/DTD/svg11.dtd">
<svg xmlns="http://www.w3.org/2000/svg" version="1.1" width="128px" height="1024px" style="shape-rendering:geometricPrecision; text-rendering:geometricPrecision; image-rendering:optimizeQuality; fill-rule:evenodd; clip-rule:evenodd" xmlns:xlink="http://www.w3.org/1999/xlink">
<g><path style="opacity:0.955" fill="#000000" d="M 41.5,494.5 C 45.5,494.5 49.5,494.5 53.5,494.5C 53.5,501.5 53.5,508.5 53.5,515.5C 48.9014,515.2 44.4014,515.533 40,516.5C 37.7781,519.51 38.2781,522.01 41.5,524C 45.5575,524.767 49.5575,524.6 53.5,523.5C 55.4336,518.695 56.9336,513.695 58,508.5C 67.7423,494.683 80.2423,491.516 95.5,499C 100.252,502.414 103.419,506.914 105,512.5C 105.5,523.161 105.667,533.828 105.5,544.5C 98.8333,544.5 92.1667,544.5 85.5,544.5C 85.6664,535.827 85.4998,527.16 85,518.5C 82.8225,514.935 80.1558,514.601 77,517.5C 76.791,529.096 71.6243,537.596 61.5,543C 53.2303,544.537 44.897,544.87 36.5,544C 20.3294,537.778 14.8294,526.278 20,509.5C 24.4229,500.386 31.5896,495.386 41.5,494.5 Z"/></g>
<g><path style="opacity:0.96" fill="#000000" d="M 20.5,550.5 C 27.1667,550.5 33.8333,550.5 40.5,550.5C 40.5,558.5 40.5,566.5 40.5,574.5C 45.5,574.5 50.5,574.5 55.5,574.5C 55.5,567.833 55.5,561.167 55.5,554.5C 62.5,554.5 69.5,554.5 76.5,554.5C 76.5,561.167 76.5,567.833 76.5,574.5C 79.5,574.5 82.5,574.5 85.5,574.5C 85.5,566.5 85.5,558.5 85.5,550.5C 92.4222,550.188 99.2555,550.521 106,551.5C 106.5,565.829 106.667,580.163 106.5,594.5C 77.8333,594.5 49.1667,594.5 20.5,594.5C 20.5,579.833 20.5,565.167 20.5,550.5 Z"/></g>
<g><path style="opacity:0.954" fill="#000000" d="M 37.5,599.5 C 42.8333,599.5 48.1667,599.5 53.5,599.5C 53.5,606.167 53.5,612.833 53.5,619.5C 49.8183,619.335 46.1516,619.501 42.5,620C 38.5138,621.943 37.8471,624.61 40.5,628C 44.8333,628.667 49.1667,628.667 53.5,628C 55.494,623.407 56.994,618.574 58,613.5C 67.0272,599.531 79.1939,596.031 94.5,603C 99.5455,606.712 103.046,611.546 105,617.5C 105.5,628.161 105.667,638.828 105.5,649.5C 98.8333,649.5 92.1667,649.5 85.5,649.5C 85.6664,640.827 85.4998,632.16 85,623.5C 82.7651,618.893 80.0984,618.559 77,622.5C 76.6816,634.462 71.1816,642.962 60.5,648C 52.8984,649.523 45.2318,649.856 37.5,649C 20.9505,643.069 15.1172,631.569 20,614.5C 23.8362,607.022 29.6696,602.022 37.5,599.5 Z"/></g>
<g><path style="opacity:0.963" fill="#000000" d="M 36.5,656.5 C 59.5,656.5 82.5,656.5 105.5,656.5C 105.5,663.167 105.5,669.833 105.5,676.5C 99.1667,676.5 92.8333,676.5 86.5,676.5C 86.5,679.5 86.5,682.5 86.5,685.5C 92.8333,685.5 99.1667,685.5 105.5,685.5C 105.5,692.5 105.5,699.5 105.5,706.5C 84.1641,706.667 62.8307,706.5 41.5,706C 23.8375,702.862 16.3375,692.362 19,674.5C 21.648,665.353 27.4814,659.353 36.5,656.5 Z M 41.5,676.5 C 49.5,676.5 57.5,676.5 65.5,676.5C 65.5,679.5 65.5,682.5 65.5,685.5C 57.4931,685.666 49.4931,685.5 41.5,685C 37.6054,682.178 37.6054,679.345 41.5,676.5 Z"/></g>
<g><path style="opacity:0.955" fill="#000000" d="M 40.5,710.5 C 44.5,710.5 48.5,710.5 52.5,710.5C 52.5,717.5 52.5,724.5 52.5,731.5C 48.4862,731.334 44.4862,731.501 40.5,732C 37.8333,734.667 37.8333,737.333 40.5,740C 55.5,740.667 70.5,740.667 85.5,740C 88.1667,737.333 88.1667,734.667 85.5,732C 81.5138,731.501 77.5138,731.334 73.5,731.5C 73.5,724.5 73.5,717.5 73.5,710.5C 82.8089,709.659 91.4756,711.493 99.5,716C 109.252,725.806 111.085,736.972 105,749.5C 101.851,753.492 98.018,756.658 93.5,759C 83.4028,760.13 73.2362,760.63 63,760.5C 52.7638,760.63 42.5972,760.13 32.5,759C 17.6419,750.42 13.8086,738.254 21,722.5C 25.6448,715.331 32.1448,711.331 40.5,710.5 Z"/></g>
<g><path style="opacity:0.963" fill="#000000" d="M 20.5,767.5 C 44.8853,767.039 69.2187,767.539 93.5,769C 108.399,778.633 111.733,791.3 103.5,807C 109.749,817.674 109.249,828.174 102,838.5C 98.547,842.145 94.3803,844.645 89.5,846C 66.5024,846.5 43.5024,846.667 20.5,846.5C 20.5,839.833 20.5,833.167 20.5,826.5C 41.5026,826.667 62.5026,826.5 83.5,826C 87.4862,824.057 88.1529,821.39 85.5,818C 63.8359,817.5 42.1692,817.333 20.5,817.5C 20.5,810.5 20.5,803.5 20.5,796.5C 42.1692,796.667 63.8359,796.5 85.5,796C 88.3739,792.949 88.0406,790.282 84.5,788C 63.1693,787.5 41.8359,787.333 20.5,787.5C 20.5,780.833 20.5,774.167 20.5,767.5 Z"/></g>
<g><path style="opacity:0.954" fill="#000000" d="M 38.5,852.5 C 54.8367,852.333 71.1701,852.5 87.5,853C 106.77,859.789 112.27,872.622 104,891.5C 100.199,896.96 95.0322,900.46 88.5,902C 71.5,902.667 54.5,902.667 37.5,902C 22.2449,897.006 16.0782,886.506 19,870.5C 22.5194,861.143 29.0194,855.143 38.5,852.5 Z M 41.5,873.5 C 56.1705,873.333 70.8371,873.5 85.5,874C 88.5327,877.571 87.8661,880.238 83.5,882C 69.8333,882.667 56.1667,882.667 42.5,882C 37.5464,879.655 37.213,876.821 41.5,873.5 Z"/></g>
<g><path style="opacity:0.943" fill="#000000" d="M 20.5,909.5 C 48.8353,909.333 77.1686,909.5 105.5,910C 106.479,916.744 106.812,923.578 106.5,930.5C 99.8333,930.5 93.1667,930.5 86.5,930.5C 86.5,933.5 86.5,936.5 86.5,939.5C 93.1667,939.5 99.8333,939.5 106.5,939.5C 106.812,946.422 106.479,953.256 105.5,960C 77.1686,960.5 48.8353,960.667 20.5,960.5C 20.5,953.5 20.5,946.5 20.5,939.5C 35.8333,939.5 51.1667,939.5 66.5,939.5C 66.5,936.5 66.5,933.5 66.5,930.5C 51.1667,930.5 35.8333,930.5 20.5,930.5C 20.5,923.5 20.5,916.5 20.5,909.5 Z"/></g>
<g><path style="opacity:0.945" fill="#000000" d="M 23.5,964.5 C 29.0934,964.193 34.5934,964.527 40,965.5C 40.6667,971.5 40.6667,977.5 40,983.5C 35.92,984.3 31.7533,984.8 27.5,985C 24.8333,987.667 24.8333,990.333 27.5,993C 36.1667,993.667 44.8333,993.667 53.5,993C 55.4126,986.824 57.5793,980.658 60,974.5C 69.8798,963.932 81.3798,961.766 94.5,968C 99.5777,971.641 103.078,976.475 105,982.5C 105.5,993.161 105.667,1003.83 105.5,1014.5C 98.8333,1014.5 92.1667,1014.5 85.5,1014.5C 85.6664,1005.83 85.4998,997.16 85,988.5C 83.3652,984.23 80.8652,983.563 77.5,986.5C 76.7202,998.579 71.0535,1007.41 60.5,1013C 48.5492,1014.56 36.5492,1014.89 24.5,1014C 9.03843,1009.18 2.53843,998.679 5,982.5C 8.11961,973.212 14.2863,967.212 23.5,964.5 Z"/></g>
</svg>
