<?xml version="1.0" encoding="UTF-8"?>
<!DOCTYPE svg PUBLIC "-//W3C//DTD SVG 1.1//EN" "http://www.w3.org/Graphics/SVG/1.1/DTD/svg11.dtd">
<svg xmlns="http://www.w3.org/2000/svg" version="1.1" width="128px" height="1024px" style="shape-rendering:geometricPrecision; text-rendering:geometricPrecision; image-rendering:optimizeQuality; fill-rule:evenodd; clip-rule:evenodd" xmlns:xlink="http://www.w3.org/1999/xlink">
<g><path style="opacity:0.948" fill="#000000" d="M 41.5,474.5 C 45.5,474.5 49.5,474.5 53.5,474.5C 53.5,481.5 53.5,488.5 53.5,495.5C 49.4862,495.334 45.4862,495.501 41.5,496C 37.5,498.667 37.5,501.333 41.5,504C 45.9558,504.867 50.2891,504.534 54.5,503C 58.4644,478.189 72.1311,470.189 95.5,479C 100.252,482.414 103.419,486.914 105,492.5C 105.5,503.495 105.667,514.495 105.5,525.5C 98.8333,525.5 92.1667,525.5 85.5,525.5C 85.6664,516.494 85.4998,507.494 85,498.5C 82.633,495.068 79.9663,494.735 77,497.5C 75.4622,515.537 65.6289,524.87 47.5,525.5C 25.9862,524.822 16.4862,513.822 19,492.5C 22.8907,481.757 30.3907,475.757 41.5,474.5 Z"/></g>
<g><path style="opacity:0.95" fill="#000000" d="M 20.5,526.5 C 27.1667,526.5 33.8333,526.5 40.5,526.5C 40.5,531.5 40.5,536.5 40.5,541.5C 62.1667,541.5 83.8333,541.5 105.5,541.5C 105.5,548.5 105.5,555.5 105.5,562.5C 83.8333,562.5 62.1667,562.5 40.5,562.5C 40.5,567.5 40.5,572.5 40.5,577.5C 33.8333,577.5 27.1667,577.5 20.5,577.5C 20.5,560.5 20.5,543.5 20.5,526.5 Z"/></g>
<g><path style="opacity:0.966" fill="#000000" d="M 20.5,581.5 C 48.8333,581.5 77.1667,581.5 105.5,581.5C 105.5,588.167 105.5,594.833 105.5,601.5C 98.4921,601.334 91.4921,601.5 84.5,602C 78.0852,604.472 71.7519,607.138 65.5,610C 78.8292,610.5 92.1625,610.667 105.5,610.5C 105.5,617.5 105.5,624.5 105.5,631.5C 77.1667,631.5 48.8333,631.5 20.5,631.5C 20.3337,624.492 20.5004,617.492 21,610.5C 27.5433,607.813 34.0433,604.979 40.5,602C 33.8417,601.5 27.175,601.334 20.5,601.5C 20.5,594.833 20.5,588.167 20.5,581.5 Z"/></g>
<g><path style="opacity:0.956" fill="#000000" d="M 20.5,637.5 C 27.1667,637.5 33.8333,637.5 40.5,637.5C 40.5,645.167 40.5,652.833 40.5,660.5C 45.5,660.5 50.5,660.5 55.5,660.5C 55.5,654.167 55.5,647.833 55.5,641.5C 62.5,641.5 69.5,641.5 76.5,641.5C 76.5,647.833 76.5,654.167 76.5,660.5C 79.5,660.5 82.5,660.5 85.5,660.5C 85.5,652.833 85.5,645.167 85.5,637.5C 92.5,637.5 99.5,637.5 106.5,637.5C 106.5,652.167 106.5,666.833 106.5,681.5C 77.8333,681.5 49.1667,681.5 20.5,681.5C 20.5,666.833 20.5,652.167 20.5,637.5 Z"/></g>
<g><path style="opacity:0.952" fill="#000000" d="M 20.5,684.5 C 48.5509,690.346 76.5509,696.512 104.5,703C 105.482,711.081 105.816,719.248 105.5,727.5C 77.259,733.602 49.0923,739.936 21,746.5C 20.1689,739.476 20.3356,732.476 21.5,725.5C 37.1131,721.81 52.7798,718.31 68.5,715C 52.5089,712.057 36.5089,709.224 20.5,706.5C 20.5,699.167 20.5,691.833 20.5,684.5 Z"/></g>
<g><path style="opacity:0.963" fill="#000000" d="M 20.5,751.5 C 27.1667,751.5 33.8333,751.5 40.5,751.5C 40.5,759.5 40.5,767.5 40.5,775.5C 45.5,775.5 50.5,775.5 55.5,775.5C 55.5,768.833 55.5,762.167 55.5,755.5C 62.5,755.5 69.5,755.5 76.5,755.5C 76.5,762.167 76.5,768.833 76.5,775.5C 79.5,775.5 82.5,775.5 85.5,775.5C 85.5,767.5 85.5,759.5 85.5,751.5C 92.5,751.5 99.5,751.5 106.5,751.5C 106.5,766.167 106.5,780.833 106.5,795.5C 77.8333,795.5 49.1667,795.5 20.5,795.5C 20.5,780.833 20.5,766.167 20.5,751.5 Z"/></g>
<g><path style="opacity:0.952" fill="#000000" d="M 20.5,828.5 C 44.2189,828.04 67.8856,828.54 91.5,830C 108.077,838.898 112.077,851.732 103.5,868.5C 110.859,881.848 108.859,893.681 97.5,904C 94.5436,906.293 91.2103,907.627 87.5,908C 65.1692,908.5 42.8358,908.667 20.5,908.5C 20.5,901.5 20.5,894.5 20.5,887.5C 42.1692,887.667 63.8359,887.5 85.5,887C 88.3739,883.949 88.0406,881.282 84.5,879C 63.1693,878.5 41.8359,878.333 20.5,878.5C 20.5,871.833 20.5,865.167 20.5,858.5C 41.5026,858.667 62.5026,858.5 83.5,858C 87.8661,856.238 88.5327,853.571 85.5,850C 63.8359,849.5 42.1692,849.333 20.5,849.5C 20.5,842.5 20.5,835.5 20.5,828.5 Z"/></g>
<g><path style="opacity:0.953" fill="#000000" d="M 20.5,914.5 C 27.1667,914.5 33.8333,914.5 40.5,914.5C 40.5,922.167 40.5,929.833 40.5,937.5C 45.5,937.5 50.5,937.5 55.5,937.5C 55.5,931.167 55.5,924.833 55.5,918.5C 62.5,918.5 69.5,918.5 76.5,918.5C 76.5,924.833 76.5,931.167 76.5,937.5C 79.5,937.5 82.5,937.5 85.5,937.5C 85.5,929.833 85.5,922.167 85.5,914.5C 92.5,914.5 99.5,914.5 106.5,914.5C 106.5,929.167 106.5,943.833 106.5,958.5C 77.8333,958.5 49.1667,958.5 20.5,958.5C 20.5,943.833 20.5,929.167 20.5,914.5 Z"/></g>
<g><path style="opacity:0.964" fill="#000000" d="M 20.5,964.5 C 48.8333,964.5 77.1667,964.5 105.5,964.5C 105.5,971.167 105.5,977.833 105.5,984.5C 98.4921,984.334 91.4921,984.5 84.5,985C 78.0852,987.472 71.7519,990.138 65.5,993C 78.8292,993.5 92.1625,993.667 105.5,993.5C 105.5,1000.5 105.5,1007.5 105.5,1014.5C 77.1667,1014.5 48.8333,1014.5 20.5,1014.5C 20.1697,1007.47 20.503,1000.47 21.5,993.5C 27.8333,990.667 34.1667,987.833 40.5,985C 33.8417,984.5 27.175,984.334 20.5,984.5C 20.5,977.833 20.5,971.167 20.5,964.5 Z"/></g>
</svg>
