<?xml version="1.0" encoding="UTF-8"?>
<!DOCTYPE svg PUBLIC "-//W3C//DTD SVG 1.1//EN" "http://www.w3.org/Graphics/SVG/1.1/DTD/svg11.dtd">
<svg xmlns="http://www.w3.org/2000/svg" version="1.1" width="128px" height="1024px" style="shape-rendering:geometricPrecision; text-rendering:geometricPrecision; image-rendering:optimizeQuality; fill-rule:evenodd; clip-rule:evenodd" xmlns:xlink="http://www.w3.org/1999/xlink">
<g><path style="opacity:0.948" fill="#000000" d="M 41.5,457.5 C 45.5,457.5 49.5,457.5 53.5,457.5C 53.5,464.5 53.5,471.5 53.5,478.5C 49.4862,478.334 45.4862,478.501 41.5,479C 37.5,481.667 37.5,484.333 41.5,487C 45.9558,487.867 50.2891,487.534 54.5,486C 58.4644,461.189 72.1311,453.189 95.5,462C 100.252,465.414 103.419,469.914 105,475.5C 105.5,486.495 105.667,497.495 105.5,508.5C 98.8333,508.5 92.1667,508.5 85.5,508.5C 85.6664,499.494 85.4998,490.494 85,481.5C 82.633,478.068 79.9663,477.735 77,480.5C 75.4622,498.537 65.6289,507.87 47.5,508.5C 25.9862,507.822 16.4862,496.822 19,475.5C 22.8907,464.757 30.3907,458.757 41.5,457.5 Z"/></g>
<g><path style="opacity:0.95" fill="#000000" d="M 20.5,509.5 C 27.1667,509.5 33.8333,509.5 40.5,509.5C 40.5,514.5 40.5,519.5 40.5,524.5C 62.1667,524.5 83.8333,524.5 105.5,524.5C 105.5,531.5 105.5,538.5 105.5,545.5C 83.8333,545.5 62.1667,545.5 40.5,545.5C 40.5,550.5 40.5,555.5 40.5,560.5C 33.8333,560.5 27.1667,560.5 20.5,560.5C 20.5,543.5 20.5,526.5 20.5,509.5 Z"/></g>
<g><path style="opacity:0.966" fill="#000000" d="M 20.5,564.5 C 48.8333,564.5 77.1667,564.5 105.5,564.5C 105.5,571.167 105.5,577.833 105.5,584.5C 98.4921,584.334 91.4921,584.5 84.5,585C 78.0852,587.472 71.7519,590.138 65.5,593C 78.8292,593.5 92.1625,593.667 105.5,593.5C 105.5,600.5 105.5,607.5 105.5,614.5C 77.1667,614.5 48.8333,614.5 20.5,614.5C 20.3337,607.492 20.5004,600.492 21,593.5C 27.5433,590.813 34.0433,587.979 40.5,585C 33.8417,584.5 27.175,584.334 20.5,584.5C 20.5,577.833 20.5,571.167 20.5,564.5 Z"/></g>
<g><path style="opacity:0.956" fill="#000000" d="M 20.5,620.5 C 27.1667,620.5 33.8333,620.5 40.5,620.5C 40.5,628.167 40.5,635.833 40.5,643.5C 45.5,643.5 50.5,643.5 55.5,643.5C 55.5,637.167 55.5,630.833 55.5,624.5C 62.5,624.5 69.5,624.5 76.5,624.5C 76.5,630.833 76.5,637.167 76.5,643.5C 79.5,643.5 82.5,643.5 85.5,643.5C 85.5,635.833 85.5,628.167 85.5,620.5C 92.5,620.5 99.5,620.5 106.5,620.5C 106.5,635.167 106.5,649.833 106.5,664.5C 77.8333,664.5 49.1667,664.5 20.5,664.5C 20.5,649.833 20.5,635.167 20.5,620.5 Z"/></g>
<g><path style="opacity:0.952" fill="#000000" d="M 20.5,667.5 C 48.5509,673.346 76.5509,679.512 104.5,686C 105.482,694.081 105.816,702.248 105.5,710.5C 77.259,716.602 49.0923,722.936 21,729.5C 20.1689,722.476 20.3356,715.476 21.5,708.5C 37.1131,704.81 52.7798,701.31 68.5,698C 52.5089,695.057 36.5089,692.224 20.5,689.5C 20.5,682.167 20.5,674.833 20.5,667.5 Z"/></g>
<g><path style="opacity:0.963" fill="#000000" d="M 20.5,734.5 C 27.1667,734.5 33.8333,734.5 40.5,734.5C 40.5,742.5 40.5,750.5 40.5,758.5C 45.5,758.5 50.5,758.5 55.5,758.5C 55.5,751.833 55.5,745.167 55.5,738.5C 62.5,738.5 69.5,738.5 76.5,738.5C 76.5,745.167 76.5,751.833 76.5,758.5C 79.5,758.5 82.5,758.5 85.5,758.5C 85.5,750.5 85.5,742.5 85.5,734.5C 92.5,734.5 99.5,734.5 106.5,734.5C 106.5,749.167 106.5,763.833 106.5,778.5C 77.8333,778.5 49.1667,778.5 20.5,778.5C 20.5,763.833 20.5,749.167 20.5,734.5 Z"/></g>
<g><path style="opacity:0.952" fill="#000000" d="M 20.5,811.5 C 44.2189,811.04 67.8856,811.54 91.5,813C 108.077,821.898 112.077,834.732 103.5,851.5C 110.859,864.848 108.859,876.681 97.5,887C 94.5436,889.293 91.2103,890.627 87.5,891C 65.1692,891.5 42.8358,891.667 20.5,891.5C 20.5,884.5 20.5,877.5 20.5,870.5C 42.1692,870.667 63.8359,870.5 85.5,870C 88.3739,866.949 88.0406,864.282 84.5,862C 63.1693,861.5 41.8359,861.333 20.5,861.5C 20.5,854.833 20.5,848.167 20.5,841.5C 41.5026,841.667 62.5026,841.5 83.5,841C 87.8661,839.238 88.5327,836.571 85.5,833C 63.8359,832.5 42.1692,832.333 20.5,832.5C 20.5,825.5 20.5,818.5 20.5,811.5 Z"/></g>
<g><path style="opacity:0.953" fill="#000000" d="M 20.5,897.5 C 27.1667,897.5 33.8333,897.5 40.5,897.5C 40.5,905.167 40.5,912.833 40.5,920.5C 45.5,920.5 50.5,920.5 55.5,920.5C 55.5,914.167 55.5,907.833 55.5,901.5C 62.5,901.5 69.5,901.5 76.5,901.5C 76.5,907.833 76.5,914.167 76.5,920.5C 79.5,920.5 82.5,920.5 85.5,920.5C 85.5,912.833 85.5,905.167 85.5,897.5C 92.5,897.5 99.5,897.5 106.5,897.5C 106.5,912.167 106.5,926.833 106.5,941.5C 77.8333,941.5 49.1667,941.5 20.5,941.5C 20.5,926.833 20.5,912.167 20.5,897.5 Z"/></g>
<g><path style="opacity:0.964" fill="#000000" d="M 20.5,947.5 C 48.8333,947.5 77.1667,947.5 105.5,947.5C 105.5,954.167 105.5,960.833 105.5,967.5C 98.4921,967.334 91.4921,967.5 84.5,968C 78.0852,970.472 71.7519,973.138 65.5,976C 78.8292,976.5 92.1625,976.667 105.5,976.5C 105.5,983.5 105.5,990.5 105.5,997.5C 77.1667,997.5 48.8333,997.5 20.5,997.5C 20.1697,990.468 20.503,983.468 21.5,976.5C 27.8333,973.667 34.1667,970.833 40.5,968C 33.8417,967.5 27.175,967.334 20.5,967.5C 20.5,960.833 20.5,954.167 20.5,947.5 Z"/></g>
</svg>
